PathFileType	4	(X/Y/Z)	59_2_19_p1_0-504.trc
DataRate	CameraRate	NumFrames	NumMarkers	Units	OrigDataRate	OrigDataStartFrame	OrigNumFrames
49.0	49.0	4	27	m	49.0	0	505
Frame#	Time	RHip			RKnee			RAnkle			RBigToe			RSmallToe			RHeel			LHip			LKnee			LAnkle			LBigToe			LSmallToe			LHeel			Neck			Head			Nose			RShoulder			RElbow			RWrist			RThumb			RIndex			RPinky			LShoulder			LElbow			LWrist			LThumb			LIndex			LPinky			
		X1	Y1	Z1	X2	Y2	Z2	X3	Y3	Z3	X4	Y4	Z4	X5	Y5	Z5	X6	Y6	Z6	X7	Y7	Z7	X8	Y8	Z8	X9	Y9	Z9	X10	Y10	Z10	X11	Y11	Z11	X12	Y12	Z12	X13	Y13	Z13	X14	Y14	Z14	X15	Y15	Z15	X16	Y16	Z16	X17	Y17	Z17	X18	Y18	Z18	X19	Y19	Z19	X20	Y20	Z20	X21	Y21	Z21	X22	Y22	Z22	X23	Y23	Z23	X24	Y24	Z24	X25	Y25	Z25	X26	Y26	Z26	X27	Y27	Z27	
0	0.0	0.3055009254623084	0.48256270066936924	1.0751268168003265	0.29729905685717994	0.5701457320045166	1.4985988264236985	0.3039001816050388	0.7288971420279456	1.8940964402587968	0.28241779011301915	0.5765660854969166	1.9500607748210643	0.3400190373367372	0.5789497292984854	1.9257554699035833	0.28147764225353605	0.8237195855481831	1.9529749275023094	0.09729974562666106	0.5021495323807704	1.0857229128983141	0.10907243198953082	0.6373575339501586	1.5254501055487626	0.10123939063289582	0.7288793367928772	1.8806108067700171	0.11521771789496492	0.5739448789796621	1.937079067964165	0.05675130839778816	0.6192193595289172	1.9305326512909593	0.1108832843723615	0.7868212194265377	1.9351012372412133	0.23236384995604165	0.4102551829157682	0.4995185257453555	0.2367695050625792	0.35037191221688085	0.24536325183616828	0.23914452339008868	0.31449751589324043	0.38007584281610907	0.38951178274420345	0.4350485854341601	0.6181509355858898	0.38415030627703783	0.39180137640845986	0.8670964013821948	0.2490588777009357	0.26608401781682395	1.038504135491091	0.1730314471377545	0.2825537515092933	1.1092923091650522	0.166229800757005	0.3113181778531485	1.1491420487088746	0.15851812967993134	0.27781550946866723	1.1428688501612705	0.06526412334590177	0.4139434360900239	0.6050444656491197	0.090319327815001	0.3551509448797152	0.8644471346110033	0.16647146960408918	0.28917751796321495	1.0565531448016796	0.2232849255036165	0.3468391925325138	1.1403357737617086	0.22090861306298623	0.3504288630432967	1.1802091236775158	0.18814698437368418	0.27271136053935346	1.167599677723925
1	0.02040816326530612	0.30509059722849974	0.4871086305687501	1.0874714519195514	0.30036301035193574	0.5862443461638926	1.5071539936919205	0.30669814125475015	0.7486688194985731	1.9012956019983545	0.2871139533073121	0.587864245219145	1.9504363976278438	0.33998787093841587	0.6081037784648825	1.9382615179415892	0.2856157170507551	0.841081058274693	1.9558316185387805	0.09302420927549812	0.5005852148076697	1.0854982339231967	0.10923525475862132	0.6374086019515883	1.5264607883152232	0.10120354028349549	0.7288282821671647	1.8804631379085632	0.11591506608224776	0.5768329822932893	1.9428404733140439	0.05679677992309036	0.6189133492462721	1.930348178686646	0.11605360487532264	0.7698852996068317	1.9282536565104105	0.23237919667845408	0.4103019776778382	0.49945791232551173	0.24077761946481327	0.35230034989357695	0.2482067769431875	0.23908989518421997	0.31443281716767757	0.3799895922258014	0.38943053257220445	0.4351444041613739	0.6181489573269493	0.3844102342320789	0.3908967659988231	0.8706172582062651	0.24908328517043746	0.26661334090404215	1.0388696197115017	0.15359897861210822	0.27217849294141466	1.1148239072731425	0.15683142424313698	0.29867587422513	1.1442145717840533	0.1580431143095135	0.3025005566707577	1.1444119327537379	0.06544435623659538	0.41422016071979767	0.6050148645471822	0.09053846391411917	0.3539448046256076	0.8675907708487735	0.1695808077502266	0.27664531160702277	1.0500814132143712	0.2185751297303402	0.3214142438824232	1.131252446193331	0.20921771552848353	0.3222958070465746	1.1707648893039504	0.1904453543900866	0.26307603964098103	1.1604968126634743
2	0.04081632653061224	0.3014030887974114	0.4742048030262234	1.085468751416918	0.30039086337088305	0.5863274724372735	1.5072396896554792	0.3066666545324431	0.7486420767936668	1.9013564339776177	0.2870877730560743	0.5879606927422882	1.9505461141726659	0.3400641927278446	0.6084311503218598	1.9383874026728791	0.2855986886788182	0.8409942309559443	1.9559084207809583	0.0923995039025769	0.5016022177126702	1.0891183489677247	0.10929492419088192	0.6377850828901972	1.526999323244614	0.10120534607157634	0.7287418504497409	1.880388075536633	0.11505916966391419	0.5740956478685354	1.9371866078976645	0.056786028349586286	0.6189488930002618	1.9302768049608998	0.1160934637101445	0.7698283057938716	1.9282253953748894	0.2323931433190889	0.41028817271345625	0.49941839447138725	0.24081899308286078	0.3516857963192412	0.24508378651953916	0.2391124060511171	0.3143265649090684	0.3799166510086438	0.3894336308171613	0.43492420199932613	0.6182676425665539	0.3843636909409373	0.39066972373237324	0.8705962505440915	0.25293517835771717	0.26723291280849726	1.0388515411065264	0.15365910394123097	0.26944290200716736	1.1100911134312217	0.15721323311928923	0.2980186441294625	1.1441429080610421	0.16145546643049002	0.2914872299455182	1.1453542138690196	0.06540533203566938	0.4139454665670142	0.6050230626881777	0.08362231436865537	0.3546817990330378	0.861004378588534	0.1694858413718079	0.2773427737821005	1.0466563463454035	0.2136999875280176	0.3348286901935671	1.1301620218257422	0.21239454707119004	0.3349708141340452	1.1725028094702366	0.18665270566964762	0.2737875196768618	1.1594079358139737
3	0.061224489795918366	0.30553003488385283	0.48602420872197066	1.0835157867814147	0.3001424024420919	0.5878513477307932	1.5034318492367753	0.3077004013573521	0.7470007612580838	1.896347184527483	0.2870277171646422	0.5879555074365141	1.9503635852644186	0.33981156147914643	0.6078439544926206	1.9381294761915486	0.28565429728581654	0.8410788884066872	1.9559356680001871	0.09310021719096037	0.5007316601181497	1.0858142720652828	0.10917292517779684	0.6378315552670742	1.5266243583656902	0.10118912278781385	0.7284295199983466	1.8800566580968772	0.11514507340245761	0.5741339637359729	1.9371049220515353	0.05679617412211912	0.6187120787951	1.9302091372130348	0.11885641994589528	0.7708179784249739	1.9196297174666597	0.23240207812518918	0.4102656576299997	0.49941723904463065	0.2408137131712338	0.35171350023759285	0.24509790552149002	0.23914883147910426	0.3143128977977149	0.37988789304320975	0.3892555586340022	0.43584707466223616	0.6218502300440664	0.38438625835085355	0.3906333270028319	0.8705708382284728	0.2529696965958815	0.26737891515873247	1.0386068263624002	0.16793598162843296	0.273152442700664	1.1322195119669496	0.1537870263592968	0.2864006094262758	1.1419838432773424	0.15409730664028667	0.29022370923541324	1.141889195077615	0.06538462033662332	0.4140051872300379	0.6050096564374653	0.08362133105148685	0.35464812524049943	0.8611826483195678	0.16516458392467107	0.2888330177374054	1.0487357976749216	0.21346173743979135	0.3359700869878858	1.1285673871154918	0.21315698416999285	0.3374286336559521	1.1764556516483193	0.18324833108158675	0.27394372797790356	1.1594116514552648
